<?xml version="1.0"?>

<svg version="1.1" id="Laag_1" xmlns="http://www.w3.org/2000/svg" xmlns:xlink="http://www.w3.org/1999/xlink" x="0px" y="0px" viewBox="0 0 841.9 350" style="enable-background:new 0 0 841.9 350;" xml:space="preserve">

<path class="st0" d="M83.2,127.6c0.2,0.6,0.6,1.1,0.8,1.8c6.6,17.1,13.3,34.1,19.9,51.2c0.2,0.7,0.7,1.4,1,2h0.4&#xA;&#x9;c0.3-0.7,0.8-1.2,1-1.9c6.4-17.6,12.8-35.1,19.1-52.6c0.4-1.3,1.1-1.8,2.6-1.8c4.8,0.1,9.8,0,14.6,0c2.6,0,3.5,0.9,3.5,3.5V220&#xA;&#x9;c0,2.4-1,3.4-3.4,3.4h-13.1c-2.6,0-3.5-0.9-3.5-3.5v-33.1c0-0.7-0.1-1.2-0.1-1.9c-0.1,0-0.2-0.1-0.3-0.1c-0.2,0.6-0.6,1.2-0.8,1.8&#xA;&#x9;c-4.1,11-8.2,21.9-12.3,33c-1.1,2.9-2.1,3.7-5.3,3.7h-6c-2.7,0-3.9-0.8-4.8-3.5c-3.2-8.3-6.3-16.8-9.4-25.1c-1-2.8-2.2-5.5-3-8.3&#xA;&#x9;c-0.7-2.1-1.2-4.4-1.2-6.6c-0.1-16.9,0-33.6,0-50.5c0-0.6,0.1-1.2,0.1-1.8C83,127.6,83.1,127.6,83.2,127.6L83.2,127.6z"></path>
<path class="st0" d="M507.7,175.8v25.4c0,3.7,1.7,6,5.4,6.8c6.2,1.4,10.1-1.6,10.8-8.3c0.3-3.5,0.2-7.1,0.3-10.6&#xA;&#x9;c0-2.6,0.9-3.5,3.5-3.5h16c2.5,0,3.5,0.9,3.4,3.5c-0.1,4.7,0.1,9.4-0.5,14.1c-1.5,11.2-8.1,18.2-18.9,21.1&#xA;&#x9;c-7.8,2.1-15.6,2.4-23.5,0.7c-10.2-2.1-16.2-8.8-18.2-18.9c-0.7-3.6-1-7.3-1.1-10.9c-0.1-13.4-0.1-26.8,0-40.2&#xA;&#x9;c0-4.3,0.5-8.7,1.6-12.8c2.5-8.7,8-14.4,16.8-16.7c8.7-2.2,17.4-2.1,26.1,0.3c10.1,2.9,15.5,10,16.9,20.3c0.5,3.7,0.3,7.4,0.5,11.1&#xA;&#x9;c0,2.1-1,3-3.2,3H527c-2.1,0-3-1-3.2-3.1c-0.2-3.1-0.2-6.4-0.8-9.4c-0.8-4.2-3.4-6.2-6.6-6.2c-5.6,0-8.3,2.6-8.5,8.3&#xA;&#x9;c-0.1,5.5-0.1,11-0.1,16.5v9.7L507.7,175.8L507.7,175.8z"></path>
<path class="st0" d="M213.9,223.3h-8.3c-2.4,0-3.4-0.9-3.8-3.1c-0.7-4.1-1.5-8.1-2.1-12.3c-0.4-2.5-1.5-3.5-4.1-3.5h-11&#xA;&#x9;c-2.6,0-3.6,0.9-3.9,3.4c-0.6,4.1-1.1,8.1-1.8,12.1c-0.3,2.4-1.5,3.4-3.9,3.4h-16.1c-2.6,0-3.3-0.9-2.7-3.4&#xA;&#x9;c6.6-30.1,13.2-60.2,19.8-90.3c0.6-2.6,1.7-3.5,4.4-3.5h20.4c2.8,0,3.8,0.9,4.4,3.6c6.5,30,13.1,60.2,19.6,90.2&#xA;&#x9;c0.6,2.5-0.2,3.4-2.7,3.5C219.3,223.3,216.6,223.3,213.9,223.3L213.9,223.3z M190.6,144.4h-0.3c-0.1,0.7-0.2,1.5-0.3,2.1&#xA;&#x9;c-1.5,9.3-2.8,18.6-4.3,27.9c-0.4,3.1-1,6.3-1.5,9.4c-0.3,2.2,0.3,3.4,2.2,3.4c2.6,0.1,5.1,0.1,7.6,0c1.8,0,2.5-1,2.4-2.7&#xA;&#x9;c0-0.4-0.1-0.8-0.1-1.2c-1.5-10.4-3-20.8-4.5-31.2C191.4,149.5,191,147,190.6,144.4L190.6,144.4z"></path>
<path class="st0" d="M55.3,129.8c0-2.9,0.9-3.8,3.8-3.8h14.3c2.7,0,3.6,0.9,3.6,3.6v90.2c0,2.6-0.9,3.6-3.5,3.6H58.8&#xA;&#x9;c-2.6,0-3.5-0.9-3.5-3.5V129.8L55.3,129.8z"></path>
<path class="st0" d="M234.6,129.8c0-2.9,0.9-3.8,3.8-3.8h14.3c2.7,0,3.6,0.9,3.6,3.6v90.2c0,2.6-0.9,3.6-3.5,3.6h-14.7&#xA;&#x9;c-2.6,0-3.5-0.9-3.5-3.5L234.6,129.8L234.6,129.8z"></path>
<path class="st0" d="M331.4,126h-14.3c-2.9,0-3.8,0.9-3.8,3.8v45.7c-8.7-16.1-17.4-32.3-25.6-48.1l0,0c-0.2-0.5-0.6-0.9-1.2-1.1&#xA;&#x9;c0,0,0,0-0.1,0c-0.5-0.2-1.2-0.3-2-0.3h-14.3c-2.9,0-3.8,0.9-3.8,3.8v90.1c0,2.6,0.9,3.5,3.5,3.5h14.7c2.6,0,3.5-1,3.5-3.6v-45.4&#xA;&#x9;l25,46.7c0.2,0.4,0.5,0.8,0.8,1.1c0.5,0.9,1.5,1.3,3.1,1.3h14.7c2.6,0,3.5-1,3.5-3.6v-90.2C335,126.9,334.1,126,331.4,126L331.4,126&#xA;&#x9;z"></path>
<path class="st0" d="M384.7,174.9v44.9c0,2.7-0.9,3.6-3.6,3.6h-15.4c-3,0-3.9-0.8-3.9-3.8v-70.5c0-2.7-0.7-3.4-3.4-3.4h-10.7&#xA;&#x9;c-2.2,0-3.3-1-3.3-3.3v-12.8c0-2.5,0.9-3.4,3.4-3.4H381c2.7,0,3.6,0.9,3.6,3.6C384.7,144.8,384.7,159.9,384.7,174.9L384.7,174.9z"></path>
<path class="st0" d="M407.3,142.4c0,2.1-1,3.1-3.3,3.1h-11.6c-1.9,0-2.9-0.9-3-2.8c-0.1-4.7-0.1-9.3,0-14.1c0-1.6,1-2.6,2.6-2.6&#xA;&#x9;c4.3-0.1,8.4-0.1,12.7,0c1.6,0,2.5,1.1,2.5,3.1L407.3,142.4L407.3,142.4z"></path>
<path class="st0" d="M472.5,201.2h-33.7v-16h32.6c1.9,0,2.6-0.9,2.6-3.6v-14.3c0-2.9-0.6-3.8-2.7-3.8h-32.6v-16h33.9&#xA;&#x9;c1.9,0,2.6-0.9,2.6-3.6v-14.3c0-2.9-0.6-3.8-2.7-3.8h-51.9c-2.7,0.1-3.5,1-3.5,3.8v89.8c0,2.6,0.9,3.5,3.5,3.5h52.1&#xA;&#x9;c1.9,0,2.6-0.9,2.6-3.6V205C475.2,202.1,474.6,201.2,472.5,201.2L472.5,201.2z"></path>
<path d="M585.7,125.2H582c-1.2,0-2.4,1-2.4,2.4v94.2c0,1.2,1,2.4,2.4,2.4h10.1c1.2,0,2.4-1,2.4-2.4v-2.4c0-1.2-1-2.4-2.4-2.4h-3.9&#xA;&#x9;v-84.7h3.9c1.2,0,2.4-1,2.4-2.4v-2.4c0-1.2-1-2.4-2.4-2.4L585.7,125.2L585.7,125.2z"></path>
<path d="M784.1,125.2h-10c-1.2,0-2.4,1-2.4,2.4v2.4c0,1.2,1,2.4,2.4,2.4h3.9V217h-3.9c-1.2,0-2.4,1-2.4,2.4v2.4c0,1.2,1,2.4,2.4,2.4&#xA;&#x9;h10.1c1.2,0,2.4-1,2.4-2.4v-94C786.4,126.3,785.4,125.2,784.1,125.2L784.1,125.2z"></path>
<path class="st0" d="M603.3,167.4h4.9v-15.8h6.1v-4.2h-17v4.2h6.1L603.3,167.4L603.3,167.4z"></path>
<path class="st0" d="M616.7,167.4h4.9v-7.8h7.3v7.8h4.9v-20h-4.9v8h-7.3v-8h-4.9V167.4z"></path>
<path class="st0" d="M638.5,167.4h12.9v-4.2h-8v-3.8h6.1v-4.2h-6.1v-3.6h7.6v-4.2h-12.5V167.4L638.5,167.4z"></path>
<path class="st0" d="M661.3,167.4h4.9V160h6.1v-4.2h-6.1v-4.2h7.3v-4.2h-12.2V167.4L661.3,167.4z"></path>
<path class="st0" d="M676.4,160.1c0,4.5,3.3,7.7,8.4,7.7s8.3-3.2,8.3-7.7v-12.6h-4.9v12.6c0,2.1-1.4,3.2-3.5,3.2s-3.5-1.1-3.5-3.2&#xA;&#x9;v-12.6h-4.9L676.4,160.1L676.4,160.1z"></path>
<path class="st0" d="M701.3,167.4h4.9v-15.8h6.1v-4.2h-17v4.2h6.1L701.3,167.4L701.3,167.4z"></path>
<path class="st0" d="M714.5,160.1c0,4.5,3.3,7.7,8.4,7.7s8.3-3.2,8.3-7.7v-12.6h-4.9v12.6c0,2.1-1.4,3.2-3.5,3.2s-3.5-1.1-3.5-3.2&#xA;&#x9;v-12.6h-4.9L714.5,160.1L714.5,160.1z"></path>
<path class="st0" d="M735.6,167.4h4.9v-6.7h2.3l3.5,6.7h5.5l-3.9-7c-0.5-0.8-0.8-1.2-0.8-1.2v-0.1c2-1,3-3.3,3-5.4&#xA;&#x9;c0-2.9-1.4-4.9-3.7-5.8c-0.9-0.3-1.8-0.5-3.9-0.5h-7L735.6,167.4L735.6,167.4z M740.5,156.5v-4.9h1.7c2.5,0,3,0.9,3,2.4&#xA;&#x9;c0,1.6-1,2.5-2.5,2.5H740.5L740.5,156.5z"></path>
<path class="st0" d="M754.6,167.4h12.9v-4.2h-8v-3.8h6.1v-4.2h-6.1v-3.6h7.6v-4.2h-12.5V167.4L754.6,167.4z"></path>
<path class="st0" d="M604.5,200h4.9v-15.8h6.1V180h-17v4.2h6.1L604.5,200L604.5,200z"></path>
<path class="st0" d="M617.9,200h12.9v-4.2h-8V192h6.1v-4.2h-6.1v-3.6h7.6V180h-12.5V200L617.9,200z"></path>
<path class="st0" d="M632.9,190c0,5.9,4.2,10.4,10.5,10.4c5.2,0,8-3.4,8-3.4l-2.5-3.6c0,0-2.3,2.5-5.3,2.5c-3.7,0-5.6-3.1-5.6-6&#xA;&#x9;s1.8-5.7,5.6-5.7c2.8,0,5,2,5,2l2.3-3.7c0,0-2.5-2.8-7.5-2.8C637.4,179.7,632.9,184.2,632.9,190L632.9,190z"></path>
<path class="st0" d="M654.4,200h4.9v-7.8h7.3v7.8h4.9v-20h-4.9v8h-7.3v-8h-4.9V200z"></path>
<path class="st0" d="M676.2,200h4.9v-7.4h6.1v-4.2h-6.1v-4.2h7.3V180h-12.2V200L676.2,200z"></path>
<path class="st0" d="M690.1,189.9c0,5.9,4.4,10.4,10.5,10.4s10.5-4.6,10.5-10.4s-4.4-10.2-10.5-10.2S690.1,184.2,690.1,189.9z&#xA;&#x9; M695.2,189.9c0-3.3,2.4-5.7,5.4-5.7s5.4,2.5,5.4,5.7s-2.4,6-5.4,6S695.2,193.3,695.2,189.9z"></path>
<path class="st0" d="M714.4,200h4.9v-6.7h2.3l3.5,6.7h5.5l-3.9-7c-0.5-0.8-0.8-1.2-0.8-1.2v-0.1c2-1,3-3.3,3-5.4&#xA;&#x9;c0-2.9-1.4-4.9-3.7-5.8c-0.9-0.3-1.8-0.5-3.9-0.5h-7L714.4,200L714.4,200z M719.3,189.1v-4.9h1.7c2.5,0,3,0.9,3,2.4&#xA;&#x9;c0,1.6-1,2.5-2.5,2.5H719.3L719.3,189.1z"></path>
<path class="st0" d="M732,190c0,5.9,4.2,10.4,10.5,10.4c5.2,0,8-3.4,8-3.4l-2.5-3.6c0,0-2.3,2.5-5.3,2.5c-3.7,0-5.6-3.1-5.6-6&#xA;&#x9;s1.8-5.7,5.6-5.7c2.8,0,5,2,5,2l2.3-3.7c0,0-2.5-2.8-7.5-2.8C736.5,179.7,732,184.2,732,190L732,190z"></path>
<path class="st0" d="M753.5,200h12.9v-4.2h-8V192h6.1v-4.2h-6.1v-3.6h7.6V180h-12.5V200L753.5,200z"></path>
</svg>